P2
9 4
179
11 13 15 17 19 21 23 25 27 51 53 55 57 59 61 
63 65 67 91 93 95 97 99 101 103 105 107 131 133 135 
137 139 141 143 145 147 
