P2
9 20
179
160 140 120 100 80 60 40 20 0 161 141 121 101 81 61 
41 21 1 162 142 122 102 82 62 42 22 2 163 143 123 
103 83 63 43 23 3 164 144 124 104 84 64 44 24 4 
165 145 125 105 85 65 45 25 5 166 146 126 106 86 66 
46 26 6 167 147 127 107 87 67 47 27 7 168 148 128 
108 88 68 48 28 8 169 149 129 109 89 69 49 29 9 
170 150 130 110 90 70 50 30 10 171 151 131 111 91 71 
51 31 11 172 152 132 112 92 72 52 32 12 173 153 133 
113 93 73 53 33 13 174 154 134 114 94 74 54 34 14 
175 155 135 115 95 75 55 35 15 176 156 136 116 96 76 
56 36 16 177 157 137 117 97 77 57 37 17 178 158 138 
118 98 78 58 38 18 179 159 139 119 99 79 59 39 19 

