P2
10 4
179
11 13 15 17 19 21 23 25 27 29 51 53 55 57 59 
61 63 65 67 69 91 93 95 97 99 101 103 105 107 109 
131 133 135 137 139 141 143 145 147 149 
