<?xml version="1.0" encoding="iso-8859-1"?>
<!-- Generator: Adobe Illustrator 19.0.0, SVG Export Plug-In . SVG Version: 6.00 Build 0)  -->
<svg version="1.1" id="Capa_1" xmlns="http://www.w3.org/2000/svg" xmlns:xlink="http://www.w3.org/1999/xlink" x="0px" y="0px"
	 viewBox="0 0 427.102 427.102" style="enable-background:new 0 0 427.102 427.102;" xml:space="preserve">
<polygon style="fill:#4DCFE0;" points="411.429,96 411.429,331.102 122.514,331.102 15.412,213.551 122.514,96 "/>
<g>
	<path style="fill:#3A2C51;" d="M411.429,346.776H122.514c-4.18,0-8.359-2.09-11.494-5.224L3.918,224
		c-5.224-5.747-5.224-15.151,0-20.898L111.02,85.551c3.135-3.135,7.314-5.224,11.494-5.224h288.914
		c8.882,0,15.673,6.792,15.673,15.673v235.102C427.102,339.984,420.31,346.776,411.429,346.776z M129.306,315.429h266.449V111.673
		H129.306L36.833,213.551L129.306,315.429z"/>
	<path style="fill:#3A2C51;" d="M330.971,244.898l-31.869-31.347l31.347-31.869c6.269-6.269,6.269-16.196,0-21.943
		s-16.196-6.269-21.943,0l-31.347,31.869l-31.869-31.347c-6.269-6.269-16.196-6.269-21.943,0c-6.269,6.269-6.269,16.196,0,21.943
		l31.869,31.347l-31.347,31.869c-6.269,6.269-6.269,16.196,0,21.943c3.135,3.135,6.792,4.702,10.971,4.702
		c4.18,0,7.837-1.567,10.971-4.702l31.347-31.869l31.869,31.347c3.135,3.135,6.792,4.702,10.971,4.702
		c4.18,0,7.837-1.567,10.971-4.702C337.241,260.571,337.241,250.645,330.971,244.898z"/>
</g>
<g>
</g>
<g>
</g>
<g>
</g>
<g>
</g>
<g>
</g>
<g>
</g>
<g>
</g>
<g>
</g>
<g>
</g>
<g>
</g>
<g>
</g>
<g>
</g>
<g>
</g>
<g>
</g>
<g>
</g>
</svg>
